<svg xmlns="http://www.w3.org/2000/svg" viewBox="0 0 750 750">
  <path fill="#ff3530" d="M750 375c0 206.25-168.75 375-375 375S0 581.25 0 375 168.75 0 375 0s375 168.75 375 375ZM375 90C217.5 90 90 217.5 90 375s127.5 285 285 285 285-127.5 285-285S532.5 90 375 90Z"/>
  <path fill="#ff3530" d="M326.25 258.75 127.5 457.5c-7.5-26.25-15-52.5-15-82.5v-15L270 202.5 232.5 165H360v127.5Zm258.75 255v-127.5H457.5l37.5 37.5L296.25 622.5A285.47 285.47 0 0 0 375 633.75h15l157.5-157.5Zm-41.25-180v-127.5h-127.5l37.5 37.5L165 532.5a347.48 347.48 0 0 0 52.5 52.5l285-285Z"/>
</svg>